REM DIRINDEX 1\2,1\3\7,1\3\8,1\4\9,1\4\10,1\4\11,1\5\12,1\5\13,1\5\14,1\6\15,1\6\16,1\6\17
REM DIRNAME "folder01","folder02","folder03","folder04","folder05","folder06","folder07","folder08","folder09","folder10","folder11","folder12","folder13","folder14","folder15","folder16","folder17"
TITLE ""
FILE "2Q_j_1421-1434.mp3" MP3
  TRACK 01 AUDIO
    TITLE "0:"
    INDEX 01 00:00:00
  TRACK 02 AUDIO
    TITLE "9:cjc174_0480"
    INDEX 01 00:00:08
  TRACK 03 AUDIO
    TITLE "0:"
    INDEX 01 00:01:37
  TRACK 04 AUDIO
    TITLE "10:cjc174_0481"
    INDEX 01 00:02:07
  TRACK 05 AUDIO
    TITLE "0:"
    INDEX 01 00:03:34
  TRACK 06 AUDIO
    TITLE "11:cjc174_0482"
    INDEX 01 00:04:04
  TRACK 07 AUDIO
    TITLE "0:"
    INDEX 01 00:06:54
  TRACK 08 AUDIO
    TITLE "9:cjc174_0483"
    INDEX 01 00:07:26
  TRACK 09 AUDIO
    TITLE "0:"
    INDEX 01 00:09:07
  TRACK 10 AUDIO
    TITLE "10:cjc174_0484"
    INDEX 01 00:09:52
  TRACK 11 AUDIO
    TITLE "0:"
    INDEX 01 00:11:65
  TRACK 12 AUDIO
    TITLE "11:cjc174_0485"
    INDEX 01 00:12:35
  TRACK 13 AUDIO
    TITLE "0:"
    INDEX 01 00:18:08
  TRACK 14 AUDIO
    TITLE "9:cjc174_0486"
    INDEX 01 00:18:65
  TRACK 15 AUDIO
    TITLE "0:"
    INDEX 01 00:20:68
  TRACK 16 AUDIO
    TITLE "10:cjc174_0487"
    INDEX 01 00:21:44
  TRACK 17 AUDIO
    TITLE "0:"
    INDEX 01 00:24:30
  TRACK 18 AUDIO
    TITLE "11:cjc174_0488"
    INDEX 01 00:25:00
  TRACK 19 AUDIO
    TITLE "0:"
    INDEX 01 00:29:00
  TRACK 20 AUDIO
    TITLE "9:cjc174_0489"
    INDEX 01 00:29:47
  TRACK 21 AUDIO
    TITLE "0:"
    INDEX 01 00:30:62
  TRACK 22 AUDIO
    TITLE "10:cjc174_0490"
    INDEX 01 00:31:32
  TRACK 23 AUDIO
    TITLE "0:"
    INDEX 01 00:35:15
  TRACK 24 AUDIO
    TITLE "11:cjc174_0491"
    INDEX 01 00:35:60
  TRACK 25 AUDIO
    TITLE "0:"
    INDEX 01 00:40:55
  TRACK 26 AUDIO
    TITLE "9:cjc174_0492"
    INDEX 01 00:41:29
  TRACK 27 AUDIO
    TITLE "0:"
    INDEX 01 00:43:65
  TRACK 28 AUDIO
    TITLE "10:cjc174_0493"
    INDEX 01 00:44:41
  TRACK 29 AUDIO
    TITLE "0:"
    INDEX 01 00:47:10
  TRACK 30 AUDIO
    TITLE "11:cjc174_0494"
    INDEX 01 00:47:55
  TRACK 31 AUDIO
    TITLE "0:"
    INDEX 01 00:51:10
  TRACK 32 AUDIO
    TITLE "9:cjc174_0495"
    INDEX 01 00:51:57
  TRACK 33 AUDIO
    TITLE "0:"
    INDEX 01 00:53:14
  TRACK 34 AUDIO
    TITLE "10:cjc174_0496"
    INDEX 01 00:53:61
  TRACK 35 AUDIO
    TITLE "0:"
    INDEX 01 00:55:66
  TRACK 36 AUDIO
    TITLE "11:cjc174_0497"
    INDEX 01 00:56:36
  TRACK 37 AUDIO
    TITLE "0:"
    INDEX 01 01:00:50
  TRACK 38 AUDIO
    TITLE "9:cjc174_0498"
    INDEX 01 01:01:24
  TRACK 39 AUDIO
    TITLE "0:"
    INDEX 01 01:02:62
  TRACK 40 AUDIO
    TITLE "10:cjc174_0499"
    INDEX 01 01:03:34
  TRACK 41 AUDIO
    TITLE "0:"
    INDEX 01 01:08:00
  TRACK 42 AUDIO
    TITLE "11:cjc174_0500"
    INDEX 01 01:08:45
  TRACK 43 AUDIO
    TITLE "0:"
    INDEX 01 01:12:10
  TRACK 44 AUDIO
    TITLE "9:cjc174_0501"
    INDEX 01 01:12:57
  TRACK 45 AUDIO
    TITLE "0:"
    INDEX 01 01:14:03
  TRACK 46 AUDIO
    TITLE "10:cjc174_0502"
    INDEX 01 01:14:48
  TRACK 47 AUDIO
    TITLE "0:"
    INDEX 01 01:18:26
  TRACK 48 AUDIO
    TITLE "11:cjc174_0503"
    INDEX 01 01:18:71
  TRACK 49 AUDIO
    TITLE "0:"
    INDEX 01 01:23:31
  TRACK 50 AUDIO
    TITLE "9:cjc174_0504"
    INDEX 01 01:24:03
  TRACK 51 AUDIO
    TITLE "0:"
    INDEX 01 01:25:22
  TRACK 52 AUDIO
    TITLE "10:cjc174_0505"
    INDEX 01 01:25:67
  TRACK 53 AUDIO
    TITLE "0:"
    INDEX 01 01:27:51
  TRACK 54 AUDIO
    TITLE "11:cjc174_0506"
    INDEX 01 01:28:21
  TRACK 55 AUDIO
    TITLE "0:"
    INDEX 01 01:31:58
  TRACK 56 AUDIO
    TITLE "9:cjc174_0507"
    INDEX 01 01:32:28
  TRACK 57 AUDIO
    TITLE "0:"
    INDEX 01 01:34:27
  TRACK 58 AUDIO
    TITLE "10:cjc174_0508"
    INDEX 01 01:35:03
  TRACK 59 AUDIO
    TITLE "0:"
    INDEX 01 01:37:72
  TRACK 60 AUDIO
    TITLE "11:cjc174_0509"
    INDEX 01 01:38:43
  TRACK 61 AUDIO
    TITLE "0:"
    INDEX 01 01:41:43
  TRACK 62 AUDIO
    TITLE "9:cjc174_0510"
    INDEX 01 01:42:19
  TRACK 63 AUDIO
    TITLE "0:"
    INDEX 01 01:43:44
  TRACK 64 AUDIO
    TITLE "10:cjc174_0511"
    INDEX 01 01:44:14
  TRACK 65 AUDIO
    TITLE "0:"
    INDEX 01 01:46:09
  TRACK 66 AUDIO
    TITLE "11:cjc174_0512"
    INDEX 01 01:46:52
  TRACK 67 AUDIO
    TITLE "0:"
    INDEX 01 01:50:28
  TRACK 68 AUDIO
    TITLE "9:cjc174_0513"
    INDEX 01 01:51:06
  TRACK 69 AUDIO
    TITLE "0:"
    INDEX 01 01:52:17
  TRACK 70 AUDIO
    TITLE "10:cjc174_0514"
    INDEX 01 01:52:62
  TRACK 71 AUDIO
    TITLE "0:"
    INDEX 01 01:54:61
  TRACK 72 AUDIO
    TITLE "11:cjc174_0515"
    INDEX 01 01:55:29
  TRACK 73 AUDIO
    TITLE "0:"
    INDEX 01 01:58:51
  TRACK 74 AUDIO
    TITLE "9:cjc174_0516"
    INDEX 01 01:59:25
  TRACK 75 AUDIO
    TITLE "0:"
    INDEX 01 02:00:64
  TRACK 76 AUDIO
    TITLE "10:cjc174_0517"
    INDEX 01 02:01:36
  TRACK 77 AUDIO
    TITLE "0:"
    INDEX 01 02:03:27
  TRACK 78 AUDIO
    TITLE "11:cjc174_0518"
    INDEX 01 02:03:72
  TRACK 79 AUDIO
    TITLE "0:"
    INDEX 01 02:06:56
  TRACK 80 AUDIO
    TITLE "9:cjc174_0519"
    INDEX 01 02:07:28
  TRACK 81 AUDIO
    TITLE "0:"
    INDEX 01 02:08:53
  TRACK 82 AUDIO
    TITLE "10:cjc174_0520"
    INDEX 01 02:09:29
  TRACK 83 AUDIO
    TITLE "0:"
    INDEX 01 02:12:65
  TRACK 84 AUDIO
    TITLE "11:cjc174_0521"
    INDEX 01 02:13:37
  TRACK 85 AUDIO
    TITLE "0:"
    INDEX 01 02:17:27
